<svg xmlns="http://www.w3.org/2000/svg" width="154" height="120" viewBox="0 0 154 120">
    <defs>
        <linearGradient id="a" x1=".042%" y1="50.012%" y2="50.012%">
            <stop offset="0%" stop-color="gray" stop-opacity=".25"/>
            <stop offset="54%" stop-color="gray" stop-opacity=".12"/>
            <stop offset="100%" stop-color="gray" stop-opacity=".1"/>
        </linearGradient>
    </defs>
    <g fill="none" fill-rule="nonzero">
        <ellipse cx="53.944" cy="112.598" fill="#4A5974" opacity=".1" rx="26.749" ry="5.067"/>
        <path fill="#4A5974" d="M89.248 16.922c-9.83-.34-19.194-3.515-28.135-6.988-8.94-3.472-17.796-7.318-27.391-9.158C27.55-.407 20.492-.576 15.519 2.73c-4.786 3.19-6.332 8.68-7.163 13.78-.626 3.837-.993 7.876.72 11.468 1.19 2.494 3.302 4.59 4.763 6.98 5.085 8.312 1.49 18.562-4.017 26.678-2.583 3.807-5.583 7.443-7.577 11.491C.251 77.175-.67 81.83 1.074 85.97c1.729 4.101 5.85 7.176 10.314 9.34 9.067 4.398 19.747 5.656 30.168 6.37 23.063 1.576 46.248.894 69.371.21 8.558-.253 17.152-.51 25.57-1.833 4.676-.735 9.502-1.902 12.897-4.718 4.308-3.574 5.376-9.626 2.488-14.107-4.843-7.519-18.228-9.385-21.617-17.453-1.862-4.441.05-9.387 2.759-13.505 5.808-8.836 15.544-16.587 16.055-26.686.353-6.935-4.327-13.882-11.564-17.164-7.584-3.44-18.103-3.008-23.696 2.687-5.764 5.857-15.89 8.113-24.57 7.81z" opacity=".1"/>
        <path fill="url(#a)" d="M81.436 54.948l-4.653-3.137 2.347-3.494-12.288-.98-4.416 3.415-5.528-3.098-4.61.554-.055-1.215a34.296 34.296 0 0 0-.38-3.782c.019-.38.033-.816.031-1.29 0-1.997-.27-4.645-1.458-6.41l.273-2.458-2.217-2.62c.356-.71.762-1.393 1.215-2.045.076-.109.152-.215.234-.319 2.878-.208 5.149-2.574 5.149-5.468 0-.134 0-.267-.015-.4 0-.053-.01-.107-.017-.16l.85.455c.052.076.113.152.18.242l.014.016.085.105.027.032c.03.037.062.072.094.108l.021.024a6.01 6.01 0 0 0 .288.3l.114.106.031.029c.098.086.2.17.304.249l.034.024.13.09.043.027.152.091.018.01c.06.033.12.063.18.092l.031.012.152.064.047.017c.053.018.105.035.16.05l.033.009c.067.017.134.03.202.04h.008c.064.011.129.018.194.02h.044c.058.004.117.004.175 0h.038a1.8 1.8 0 0 0 .217-.025c.34-.045.666-.162.957-.343.074-.05.14-.111.194-.181.304-.398-.03-.834-.03-.834-.119-.283-.887-.482-.887-.482s-2.43-1.014-2.43-1.822c0-.809-.608-5-6.88-5.96 0 0-4.08-.229-5.227 1.956l-.024.255c-.337.21-.617.635-.95.76a1.55 1.55 0 0 0-.411.151V17.7a.392.392 0 0 0-.093.12 1.215 1.215 0 0 0-.126.456 1.716 1.716 0 0 1-.29.691l-.026.041c.176.014.354-.015.517-.083a2.572 2.572 0 0 1-.152.607.504.504 0 0 0 .468-.28v-.012l.02-.027c.037-.07.069-.144.093-.22l-.016.018c.03-.099.057-.199.09-.296a.465.465 0 0 1 .075-.152.368.368 0 0 1 .315-.105l-.063 1.317h.028a1.797 1.797 0 0 1-.134.277c-.216.349-.607.587-.752.97-.062.185-.086.38-.07.574 0 .114.014.23.023.344v-.01c.021.304.028.593-.137.838-.112.167-.293.293-.355.483a.47.47 0 0 0-.023.164c.012.166.047.33.104.487v-.009a.741.741 0 0 1 .025.359c-.068.303-.437.557-.419.847a.327.327 0 0 0 .017.113c.07.141.194.25.343.303.234.134.503.193.772.17.1-.018.198-.05.288-.098-.106.244-.215.486-.326.715l-.053.11s-.94-.628-1.472.651a2.837 2.837 0 0 0-.33.857c-.027.12-.064.239-.112.352-.237.401-.591.72-1.015.912-1.088.498-5.48 5.977-5.558 7.396a8.277 8.277 0 0 1-.28 1.637 9.744 9.744 0 0 0-.26 3.872c.054.419.143.832.268 1.235.466 1.417.778 4.062.778 4.062l.504 4.59c-.019.634.009 1.268.082 1.897-.515.588-2.582 3.038-1.792 3.705.607.526 1.67.44 2.268.331-.503 1.244-1.295 3.407-1.4 4.893-.151 2.198.26 5.11.912 6.228.652 1.118 2.824 3.986 2.824 3.986s-.102 3.934.674 5.363c.776 1.43 1.09 4.395 1.09 4.395s.724 2.503.36 3.423c-.362.921.674 1.687-.414 2.299-1.087.612-2.479 14.409-2.479 14.409s-.56 9.042 0 9.503a.57.57 0 0 0 .096.056v3.038s-.389.638 1.192.767c1.083.086 4.153.282 5.974.396l1.412.088s3.341.666 4.818 0c1.476-.665 4.094-.65 3.705-2.407a5 5 0 0 0-.207-.703c-.427-1.091-1.151-1.216-2.486-1.52a6.266 6.266 0 0 0-.22-.044c-1.407-.244-1.87.41-2.657-.442-.686-.736-2.867-1.561-3.61-1.822.019-.055.041-.108.06-.164a1.112 1.112 0 0 1-.564-.275l2.013.127 1.198.075s2.84.566 4.102 0c1.26-.567 3.478-.552 3.147-2.045a4.285 4.285 0 0 0-.175-.598c-.363-.927-.98-1.029-2.114-1.285-.066-.014-.126-.028-.187-.038-1.196-.208-1.587.347-2.257-.376-.574-.616-2.387-1.307-3.038-1.543 0-.337-.456-.817-.743-1.299-.337-.562.286-2.529.286-2.529l.355-8.161c.135-.06.279-.101.425-.122 0 0 1.607-1.534 1.244-3.168a10.5 10.5 0 0 1-.115-1.494c.528-.49 1.256-1.215 1.463-1.661.337-.728 0-4.253 0-4.253V67.524l2.688.271 2.44.251.743.076 2.44.246 5.606.567 5.052-.957 2.186-.413 4.494-.851V55.716l4.653-.768zM44.432 18.506l-.313-.034c.103.005.213.025.313.034z"/>
        <path fill="#EFB7B9" d="M70.531 62.089c-1.519 2.173-6.98 1.022-6.98 1.022l-4.232-3.96-.57-.536.956-2.03s.304.084.825.233c2.736.794 11.283 3.443 10.001 5.27z"/>
        <path fill="#000" d="M60.527 56.818c-.187.65-.699 1.624-1.208 2.333l-.57-.536.956-2.03s.307.084.822.233z" opacity=".1"/>
        <path fill="#DCE6F2" d="M46.013 33.933s-3.9 1.73-3.71 5.978c.139 2.738.437 5.464.894 8.166 0 0-.798 6.394 2.523 8.042 3.32 1.648 6.393 3.003 6.393 3.003s5.195.559 5.84.79c.646.23 2.664-3.3 2.292-3.85-.373-.55-5.14-1.702-5.748-2.62-.608-.917-2.013-1.484-2.013-1.484s-1.45-.877-1.55-1.67c-.098-.793.285-1.384.382-1.732.097-.348.343-3.706.343-3.706s1.638-11.955-5.646-10.917z"/>
        <path fill="#000" d="M48.588 47.903s-5.352.896-4.834 2.769c0 0 1.943-2.022 4.834-2.77zM48.629 48.66s-2.942 2.402-2.367 2.525c.576.123 2.367-2.524 2.367-2.524zM50.048 49.498s-.797 1.614-.307 1.505c.49-.11.307-1.505.307-1.505z" opacity=".1"/>
        <path fill="#000" d="M60.725 56.99l-.326-.093c.093-.304.119-.55.043-.664-.372-.55-5.137-1.701-5.743-2.62-.606-.92-2.013-1.484-2.013-1.484s-1.45-.878-1.55-1.671c-.098-.793.285-1.384.382-1.732.097-.348.343-3.708.343-3.708s1.633-11.953-5.65-10.915c0 0-3.901 1.731-3.711 5.98a69.85 69.85 0 0 0 .894 8.166s-.797 6.394 2.523 8.042a175.624 175.624 0 0 0 6.394 3.003s5.193.557 5.84.79c.245.088.687-.367 1.12-.99l.246.229 4.232 3.958s5.46 1.153 6.98-1.02c1.283-1.83-7.263-4.479-10.004-5.272z" opacity=".1"/>
        <path fill="#965D7B" d="M43.768 17.986c-.149.03-.291.084-.42.163-.153.126-.153.342-.19.53-.045.262-.15.51-.304.726.173.013.346-.016.505-.083a2.604 2.604 0 0 1-.151.607.492.492 0 0 0 .455-.278c.08-.171.144-.35.19-.533a.439.439 0 0 1 .073-.152c.14-.165.4-.091.615-.07.366.031.72-.139.924-.443.23-.348.243-1.238-.304-1.332-.571-.095-.927.692-1.393.865z"/>
        <g fill="#000" opacity=".1">
            <path d="M43.521 18.336c.025-.075.041-.152.071-.227-.258.126-.272.34-.34.53a1.17 1.17 0 0 1-.16.321c.214-.19.36-.403.43-.624zM43.38 19.59c.076-.195.127-.4.153-.607a1.088 1.088 0 0 1-.482.083 1.757 1.757 0 0 1-.175.304c.173.013.346-.015.505-.082a2.526 2.526 0 0 1-.152.608.494.494 0 0 0 .456-.278c.037-.07.068-.142.09-.217a.456.456 0 0 1-.394.19zM44.714 18.557c-.215-.02-.477-.095-.616.07a.47.47 0 0 0-.073.152c-.014.04-.026.08-.037.122.145-.114.379-.053.575-.034.365.03.718-.14.923-.443a.842.842 0 0 0 .102-.239c-.211.262-.539.401-.874.372z"/>
        </g>
        <path fill="#DCE6F2" d="M48.34 30.532l2.317 2.785-.303 2.812-2.8-4.382z"/>
        <path fill="#000" d="M50.655 33.317l-.284 2.645-.018.167-2.526-3.955-.272-.427.079-.123.705-1.092.156.188z" opacity=".1"/>
        <path fill="#EFB7B9" d="M51.858 26.76c-.784.225-1.532.996-2.184 1.934-.44.646-.834 1.323-1.179 2.026-.214.428-.402.84-.559 1.198l-.11.256a20.217 20.217 0 0 0-.41 1.042s-6-4.512-5.051-4.815c.319-.102.738-.786 1.152-1.647l.052-.11c.263-.552.521-1.17.75-1.75.47-1.192.818-2.228.818-2.228s9.114 3.41 6.721 4.094z"/>
        <path fill="#444053" d="M55.448 22.413s1.385 2.506 3.246 2.164c1.86-.342 1.095-1.346 1.095-1.346l-4.341-.818z"/>
        <path fill="#A36468" d="M52.764 109.17c-1.228.56-4.003 0-4.003 0l-1.17-.073a469.405 469.405 0 0 1-4.96-.334c-1.313-.108-.991-.646-.991-.646v-3.25l6.368-1.612s2.517.86 3.206 1.613c.655.717 1.038.165 2.206.372.057.01.118.023.182.038 1.109.254 1.71.354 2.066 1.273.071.193.129.39.171.592.329 1.48-1.85 1.47-3.075 2.027z"/>
        <path fill="#000" d="M55.668 106.55a4.76 4.76 0 0 1-.717.368c-.836.382-1.63.847-2.475 1.207-.844.36-1.754.616-2.668.548-.479-.035-.968-.152-1.425-.015a3.29 3.29 0 0 0-.792.439 469.405 469.405 0 0 1-4.96-.334c-1.313-.108-.991-.646-.991-.646v-.38c.047 0 .1-.013.161-.018.314-.005.627.042.927.138.659.18 1.315.356 1.974.532a1.56 1.56 0 0 1 .76-.97c.376-.199.798-.296 1.224-.28 1.022.013 1.99.498 3.01.547.286.026.573-.022.835-.14.14-.07.262-.172.4-.25.218-.105.45-.183.687-.232.67-.166 1.327-.378 1.967-.635.183-.071.395-.2.37-.395-.03-.258-.437-.288-.543-.525a.304.304 0 0 1 .012-.269c.058.01.119.023.183.038 1.104.254 1.705.354 2.06 1.273z" opacity=".1"/>
        <path fill="#A36468" d="M51.466 116.278c-1.443.66-4.709 0-4.709 0l-1.374-.08c-1.78-.114-4.779-.304-5.838-.393-1.544-.128-1.165-.76-1.165-.76v-3.83l7.493-1.898s2.962 1.013 3.774 1.899c.77.843 1.215.194 2.596.437.068.012.14.028.214.044 1.305.304 2.012.418 2.43 1.5.085.227.152.46.202.697.377 1.74-2.18 1.727-3.623 2.384z"/>
        <path fill="#000" d="M54.884 113.196c-.268.168-.55.313-.843.433-.983.448-1.918.995-2.912 1.42-.993.423-2.064.724-3.141.645-.562-.041-1.138-.183-1.671-.019-.334.13-.649.306-.934.523-1.78-.114-4.779-.304-5.838-.393-1.544-.128-1.165-.76-1.165-.76v-.447c.063-.01.127-.017.19-.02.37-.008.739.047 1.09.162l2.323.626c.131-.488.457-.9.901-1.141.443-.236.94-.35 1.442-.331 1.203.016 2.34.586 3.542.644.334.03.671-.026.978-.163.166-.083.304-.203.471-.293.257-.126.529-.218.81-.273a18.18 18.18 0 0 0 2.302-.748c.215-.085.465-.237.436-.465-.038-.303-.515-.34-.64-.62a.366.366 0 0 1 .014-.315c.069.012.14.027.215.044 1.304.291 2.012.41 2.43 1.491z" opacity=".1"/>
        <path fill="#444053" d="M48.2 90.002l-.405 9.543s-.608 1.95-.278 2.507c.33.557.886 1.113.684 1.443-.203.33-2.633 3.893-3.418 2.526-.786-1.367-1.56-7.291-1.56-7.291l.724-7.317 4.254-1.411zM49.96 66.223l1.127 1.507v13.106s.33 3.494 0 4.215c-.33.722-2 2.165-2 2.165L47.68 80l.304-7.633 1.974-6.145z"/>
        <path fill="#000" d="M48.2 90.002l-.405 9.543s-.608 1.95-.278 2.507c.33.557.886 1.113.684 1.443-.203.33-2.633 3.893-3.418 2.526-.786-1.367-1.56-7.291-1.56-7.291l.724-7.317 4.254-1.411zM49.96 66.223l1.127 1.507v13.106s.33 3.494 0 4.215c-.33.722-2 2.165-2 2.165L47.68 80l.304-7.633 1.974-6.145z" opacity=".1"/>
        <path fill="#444053" d="M51.087 60.633v7.09L49.82 73.24s-.405 13.317-.051 14.936c.354 1.62-1.216 3.14-1.216 3.14s-.911.102-.911.81c0 .707-1.519 2.734-1.519 2.734l.05 3.95s.66 7.392-.354 8.81c-1.013 1.416.354 1.62.354 1.62-1.265 4.151-7.341 3.19-7.89 2.734-.548-.456 0-9.418 0-9.418s1.359-13.67 2.422-14.278c1.063-.608.051-1.367.405-2.278.354-.912-.354-3.392-.354-3.392s-.303-2.938-1.063-4.355c-.76-1.418-.66-5.317-.66-5.317s-2.126-2.836-2.758-3.95c-.631-1.113-1.039-3.999-.887-6.177.104-1.472.877-3.615 1.367-4.848.236-.591.406-.974.406-.974l.144.038 8.297 2.172 5.484 1.435z"/>
        <path fill="#000" d="M51.858 26.76c-.784.225-1.532.996-2.184 1.934h-.17a5.426 5.426 0 0 1-5.186-3.81c.47-1.192.817-2.228.817-2.228s9.116 3.42 6.723 4.104z" opacity=".1"/>
        <path fill="#EFB7B9" d="M54.934 22.963a5.43 5.43 0 1 1-9.585-3.491 5.43 5.43 0 0 1 9.577 3.093c.004.133.008.265.008.398z"/>
        <path fill="#000" d="M50.371 35.962l-.018.167-2.526-3.95c-.264.625-.412 1.043-.412 1.043s-6-4.518-5.05-4.821c.319-.102.738-.786 1.152-1.647l.052-.11c.44 1.313 3 3.936 4.065 4.987.123.122.225.222.304.295l.162.152.085.085c.388.4 2.022 2.162 2.186 3.799z" opacity=".1"/>
        <path fill="#DCE6F2" d="M52.26 49.363l-.277 8.896-.049 1.585s-3.275-.304-6.331-.638c-2.46-.27-4.78-.56-5.137-.73-.456-.214-1.433-.38-2.203-.484-.595-.08-1.063-.123-1.063-.123s-.175.052-.444.1c-.586.106-1.616.193-2.216-.328-.767-.667 1.249-3.09 1.752-3.671l.11-.126-.19-1.755-.493-4.55s-.304-2.62-.76-4.025c-.121-.399-.21-.808-.262-1.222a9.794 9.794 0 0 1 .255-3.837 8.367 8.367 0 0 0 .273-1.624c.076-1.405 4.367-6.836 5.43-7.33a2.254 2.254 0 0 0 1.088-1.084c.074-.15.13-.309.166-.472.456-1.975 1.608-1.191 1.608-1.191.278 1.545 4.582 5.634 4.582 5.634l.085.085c.427.437 2.328 2.491 2.193 4.244-.027.652.07 1.304.287 1.92a32.468 32.468 0 0 1 1.497 8.506l.098 2.22z"/>
        <path fill="#000" d="M46.162 38.798s-1.063 2.582-1.86 3c-.798.418 2.24.881 1.86-3zM46.96 43.62s-2.43.305-2.43.76c0 .456 2.43-.76 2.43-.76zM49.504 46.583s-3.532 7.519-4.52 7.747c-.987.227 4.52-7.747 4.52-7.747zM48.032 32.77l-2.921 1.269-3.526-5.326c.074-.15.13-.308.166-.472.456-1.975 1.608-1.19 1.608-1.19.278 1.544 4.582 5.633 4.582 5.633l.09.085z" opacity=".1"/>
        <path fill="#DCE6F2" d="M48.184 32.465l-2.921 1.27-3.526-5.325c.074-.15.13-.31.166-.473.455-1.974 1.608-1.19 1.608-1.19.278 1.544 4.582 5.633 4.582 5.633l.09.085z"/>
        <path fill="#000" d="M51.934 59.844s-3.275-.304-6.331-.638l5.484 1.435v1.67c-.24.218-.449.33-.584.273-.632-.266-5.789-1.101-5.789-1.101s-2.995-1.52-6.227-3.342a3.59 3.59 0 0 1-1.185-1.101c-.597-.865-.889-1.975-1.015-3.064a13.249 13.249 0 0 1-.079-1.88c.016-.713.08-1.423.195-2.126a69.886 69.886 0 0 1-.456-8.202c.038-4.254 4.025-5.773 4.025-5.773 7.33-.645 5.057 11.203 5.057 11.203s-.424 3.342-.54 3.684c-.115.341-.53.91-.473 1.708.056.798 1.456 1.752 1.456 1.752s1.367.64 1.931 1.59c.41.7 3.074 1.65 4.58 2.327l-.049 1.585zM54.389 19.59a1.72 1.72 0 0 1-.152.726 4.489 4.489 0 0 1-.27.541c-.16.32-.387.602-.666.827-.35.25-.794.32-1.215.422-.42.102-.858.264-1.098.623-.13.23-.217.482-.257.744-.04.261-.144.509-.304.72a.597.597 0 0 1-.71.17.718.718 0 0 1-.275-.354c-.174-.39-.218-.823-.288-1.244-.07-.42-.168-.854-.426-1.192-.259-.34-.716-.562-1.121-.43a1.08 1.08 0 0 0-.608.59c-.112.268-.19.55-.23.838a47.905 47.905 0 0 1-.666 3.074.283.283 0 0 1-.05.116.219.219 0 0 1-.152.063c-.34.046-.667-.193-1.01-.167a.58.58 0 0 0-.105.017 5.427 5.427 0 0 1 .548-6.198l.028-.007c.228-.081.435-.212.607-.383.22-.22.422-.454.608-.703l.121-.152c.35-.42.747-.799 1.185-1.126.12-.098.257-.172.404-.218.126-.025.255-.03.383-.013a9.656 9.656 0 0 0 1.581.06c.368-.058.739-.096 1.11-.113.962.028 1.782.707 2.39 1.45.326.382.618.821.638 1.32z" opacity=".1"/>
        <path fill="#965D7B" d="M44.066 20.446c-.211.346-.593.581-.735.961-.21.551.144 1.238-.181 1.73-.108.166-.286.289-.346.479-.104.32.179.662.106.992-.073.33-.507.607-.392.93.068.14.188.248.334.303.23.132.495.19.76.169.414-.069.723-.476 1.143-.506.342-.025.669.212 1.01.168a.228.228 0 0 0 .15-.065.263.263 0 0 0 .051-.115c.255-1.018.478-2.043.668-3.075.04-.288.116-.57.228-.838a1.09 1.09 0 0 1 .608-.59c.405-.13.861.092 1.12.43.26.339.36.772.43 1.193.07.42.113.853.285 1.244.052.144.149.269.276.355.228.132.535.027.71-.17.16-.211.264-.46.303-.722a2.17 2.17 0 0 1 .257-.742c.24-.359.68-.521 1.098-.623.42-.102.862-.173 1.216-.424a2.5 2.5 0 0 0 .665-.825c.225-.392.434-.817.416-1.268-.02-.492-.311-.931-.623-1.314-.607-.744-1.43-1.423-2.39-1.45a9.448 9.448 0 0 0-1.111.113 9.504 9.504 0 0 1-1.581-.06 1.243 1.243 0 0 0-.383.013c-.148.045-.284.12-.403.219a6.931 6.931 0 0 0-1.186 1.124c-.225.299-.47.583-.732.85-.172.172-.38.303-.608.385-.152.042-.303.012-.448.06-.448.14-.507.725-.715 1.069z"/>
        <path fill="#000" d="M58.694 24.576c-1.216.223-2.223-.76-2.78-1.477a5.957 5.957 0 0 1-.466-.686l4.17.786.17.032s.766 1.004-1.094 1.345z" opacity=".1"/>
        <g fill="#000" opacity=".1">
            <path d="M43.207 24.173c.055-.198-.044-.398-.29-.583 0 .015-.045.03-.06.045-.215.204.075.415.26.626a.352.352 0 0 0 .09-.088zM43.293 21.687c-.052.21-.038.42.04.63.051-.21.038-.421-.04-.63zM53.82 20.266c-.16.32-.386.602-.665.827-.35.25-.792.32-1.215.422-.422.102-.858.264-1.098.623-.13.23-.217.482-.257.744a1.59 1.59 0 0 1-.303.722c-.175.197-.482.303-.71.17a.726.726 0 0 1-.276-.356c-.172-.39-.218-.822-.286-1.244-.068-.422-.17-.853-.428-1.192-.258-.339-.716-.562-1.121-.43a1.085 1.085 0 0 0-.608.59c-.112.268-.189.55-.228.838a48.308 48.308 0 0 1-.668 3.074.263.263 0 0 1-.05.116.228.228 0 0 1-.152.065c-.34.044-.667-.193-1.009-.169-.42.03-.729.438-1.143.505a1.284 1.284 0 0 1-.76-.169.813.813 0 0 1-.278-.197.41.41 0 0 0-.056.353c.067.142.187.251.334.304.23.134.495.193.76.169.414-.067.723-.474 1.143-.504.342-.025.669.212 1.009.168a.228.228 0 0 0 .152-.065.263.263 0 0 0 .05-.116c.255-1.012.478-2.037.668-3.074.04-.288.116-.57.228-.838.115-.271.334-.484.608-.59.405-.132.861.091 1.12.43.26.339.36.772.43 1.192.069.421.113.854.285 1.244.052.145.149.27.276.356.228.132.535.027.71-.17.16-.212.264-.46.303-.722.04-.261.127-.513.257-.744.24-.359.679-.52 1.098-.623.42-.103.862-.171 1.215-.422.279-.225.506-.506.666-.826.225-.39.434-.816.416-1.267a1.631 1.631 0 0 0-.018-.173c-.074.347-.208.679-.398.98z"/>
        </g>
        <path fill="#000" d="M54.243 20.312c.39.692.62 1.463.676 2.256-1.353-.76-2.626-1.594-3.269-1.884-1.12-.506-5.306-.43-6.88-.383a5.496 5.496 0 0 1 1.827-1.926 5.433 5.433 0 0 1 7.654 1.934l-.008.003zM59.073 23.932c-.73.224-1.923-.21-3.16-.833a5.957 5.957 0 0 1-.465-.686l4.17.786c.277.189.347.458-.545.733z" opacity=".1"/>
        <path fill="#444053" d="M49.827 15.046s-3.987-.228-5.108 1.936l-.18 1.919-.305-.034-.06 1.305s6.094-.266 7.48.36c1.388.626 5.697 3.78 7.424 3.248 1.727-.532-.152-1.026-.152-1.026s-2.377-1.007-2.377-1.797-.59-4.962-6.722-5.911z"/>
        <path fill="#000" d="M42.137 86.165s2.544 2.468 3.645 2.278c0 0-3.114-.266-3.645-2.278zM41.605 87.308s.228 1.27.836 1.146c.607-.125-.836-1.146-.836-1.146zM45.592 108.532s-3.612 2.81-3.003 2.886c.61.076 3.003-2.886 3.003-2.886z" opacity=".1"/>
        <path fill="#4A5974" d="M50.424 52.759l11.697-1.903v11.073l-11.113-.582z"/>
        <path fill="#000" d="M50.424 52.759l11.697-1.903v11.073l-11.113-.582z" opacity=".05"/>
        <path fill="#4A5974" d="M62.12 50.856l14.027 1.05-.776 9.636-13.25.387z"/>
        <path fill="#000" d="M62.12 50.856l14.027 1.05-.776 9.636-13.25.387z" opacity=".1"/>
        <path fill="#4A5974" d="M66.433 47.476l-4.312 3.38 14.026 1.05 2.292-3.46zM46.19 49.068l10.529-1.282 5.402 3.07-11.697 1.903zM64.685 53.731v15.14l-5.48-.562-2.383-.243-.726-.076-2.382-.245-3.29-.337V52.76l11.695.796z"/>
        <path fill="#4A5974" d="M76.147 51.905V66.67l-4.392.843-2.135.41-4.935.948V53.73z"/>
        <path fill="#000" d="M76.147 51.905V66.67l-4.392.843-2.135.41-4.935.948V53.73z" opacity=".05"/>
        <path fill="#4A5974" d="M46.19 55.946l4.234-3.187 14.26.972-2.099 3.536z"/>
        <path fill="#FFF" d="M46.19 55.946l4.234-3.187 14.26.972-2.099 3.536z" opacity=".1"/>
        <path fill="#4A5974" d="M76.147 51.905l-11.462 1.826 3.73 3.342 12.278-2.06z"/>
        <path fill="#FFF" d="M76.147 51.905l-11.462 1.826 3.73 3.342 12.278-2.06zM71.755 67.513l-2.135.41v-3.155l2-.504zM59.206 66.222v2.087l-2.384-.243v-1.844zM56.096 66.88v1.11l-2.382-.245v-.866z" opacity=".1"/>
        <path fill="#000" d="M63.25 65.114c-1.632 2.089-7.025.646-7.025.646l-4.007-4.18-.544-.567 1.064-1.975s.304.1.81.277c2.686.939 11.077 4.042 9.703 5.8z" opacity=".1"/>
        <path fill="#EFB7B9" d="M63.099 64.81c-1.633 2.09-7.026.646-7.026.646l-4.007-4.18-.543-.567 1.063-1.974s.304.1.811.276c2.686.939 11.076 4.042 9.702 5.8z"/>
        <path fill="#000" d="M53.39 59.011c-.22.638-.784 1.583-1.33 2.265l-.544-.567 1.064-1.974s.305.1.81.276z" opacity=".1"/>
        <path fill="#DCE6F2" d="M40.124 35.388s-3.987 1.519-4.025 5.772c-.01 2.74.143 5.48.455 8.203 0 0-1.139 6.341 2.089 8.164a176.009 176.009 0 0 0 6.228 3.342s5.157.835 5.79 1.101c.634.266 2.835-3.152 2.493-3.721-.342-.57-5.037-1.975-5.595-2.924-.557-.95-1.93-1.59-1.93-1.59s-1.4-.955-1.457-1.752c-.056-.798.357-1.367.474-1.71.117-.34.54-3.683.54-3.683s2.267-11.855-5.062-11.202z"/>
        <path fill="#000" d="M41.947 49.469s-5.393.607-4.975 2.506c0 0 2.05-1.915 4.975-2.506zM41.947 50.228s-3.06 2.24-2.499 2.393c.562.152 2.499-2.393 2.499-2.393zM43.314 51.14s-.873 1.57-.38 1.488c.494-.082.38-1.488.38-1.488z" opacity=".1"/>
        <path fill="#4A5974" d="M99.459 17.072s-5.772-.348-5.098 3.702c0 0-.135.715.513 1.04 0 0 .011-.304.593-.199.207.035.418.045.627.03.284-.018.554-.13.769-.317 0 0 1.624-.67 2.255-3.325 0 0 .468-.58.456-.73l-.975.419s.333.703.07 1.288c0 0-.03-1.263-.219-1.234-.038 0-.506.245-.506.245s.573 1.224.14 2.116c0 0 .164-1.51-.319-2.028l-.687.401s.67 1.265.216 2.298c0 0 .117-1.584-.36-2.2l-.623.484s.63 1.248.246 2.105c0 0-.05-1.844-.38-1.984 0 0-.545.48-.627.678 0 0 .43.911.163 1.384 0 0-.164-1.23-.304-1.235 0 0-.542.814-.598 1.367a2.956 2.956 0 0 1 .466-1.45c-.313.06-.6.21-.83.43 0 0 .084-.575.964-.625 0 0 .455-.619.568-.657 0 0-.875-.072-1.405.163 0 0 .466-.542 1.566-.304l.607-.501s-1.151-.152-1.64.017c0 0 .562-.48 1.806-.131l.668-.4s-.981-.212-1.566-.135c0 0 .617-.332 1.762.028l.479-.215s-.72-.14-.93-.164c-.21-.022-.222-.08-.222-.08a2.485 2.485 0 0 1 1.35.152s1.026-.37 1.005-.433z"/>
        <path fill="#4A5974" d="M116.997 37.326s-5.772-.348-5.098 3.702c0 0-.135.715.514 1.04 0 0 .01-.303.594-.199.207.035.417.045.627.03a1.3 1.3 0 0 0 .76-.315s1.625-.672 2.257-3.327c0 0 .466-.579.448-.727l-.975.416s.332.703.07 1.288c0 0-.031-1.262-.218-1.233-.038 0-.507.244-.507.244s.574 1.226.141 2.116c0 0 .164-1.51-.32-2.028l-.68.397s.67 1.265.216 2.298c0 0 .117-1.584-.36-2.201l-.62.486s.628 1.247.245 2.104c0 0-.05-1.844-.381-1.984 0 0-.544.48-.627.677 0 0 .43.912.164 1.384 0 0-.164-1.229-.304-1.235 0 0-.542.814-.599 1.367a2.965 2.965 0 0 1 .468-1.449c-.313.06-.602.209-.83.43 0 0 .084-.576.964-.626 0 0 .448-.618.568-.656 0 0-.875-.073-1.405.163 0 0 .466-.543 1.564-.297l.608-.5s-1.153-.153-1.64.016c0 0 .562-.48 1.806-.13l.668-.4s-.983-.211-1.568-.135c0 0 .619-.333 1.764.027l.478-.214s-.72-.142-.93-.164c-.212-.023-.223-.08-.223-.08a2.49 2.49 0 0 1 1.352.151s1.027-.372 1.009-.436zM81.931 33.73s1.33-5.633-2.778-5.653c0 0-.682-.255-1.112.328 0 0 .293.062.094.618-.069.197-.115.4-.137.608-.029.282.035.566.181.81 0 0 .385 1.716 2.886 2.791 0 0 .492.56.641.565l-.243-1.03s-.75.207-1.282-.153c0 0 1.25.184 1.252 0 0-.038-.152-.54-.152-.54s-1.305.355-2.11-.224c0 0 1.46.42 2.054.032l-.274-.747s-1.367.445-2.302-.18c0 0 1.541.386 2.231.022l-.372-.696s-1.337.407-2.116-.117c0 0 1.823.264 2.02-.036 0 0-.38-.619-.56-.734 0 0-.966.27-1.392-.075 0 0 1.238.048 1.267-.083 0 0-.71-.673-1.25-.825.504.115.97.359 1.35.708a1.639 1.639 0 0 0-.282-.892s.553.183.456 1.064c0 0 .531.546.548.671 0 0 .22-.85.079-1.413 0 0 .456.553.026 1.594l.389.69s.352-1.108.262-1.618c0 0 .379.635-.179 1.801l.281.728s.375-.933.4-1.52c0 0 .223.666-.329 1.734l.131.507s.261-.685.32-.888c.057-.204.116-.205.116-.205a2.488 2.488 0 0 1-.378 1.306s.199 1.06.264 1.053zM69.29 35.65s-4.636-3.467-6.293.29c0 0-.506.523-.143 1.15 0 0 .173-.244.608.162.154.143.324.267.507.37.248.138.535.192.816.152 0 0 1.725.333 3.712-1.537 0 0 .71-.228.776-.362l-1.046-.183s-.11.77-.649 1.115c0 0 .667-1.073.494-1.15-.035-.017-.558-.076-.558-.076s-.194 1.34-1.045 1.845c0 0 .968-1.17.848-1.87l-.794-.042s-.136 1.426-1.084 2.04c0 0 .968-1.26.912-2.037l-.787.064s-.16 1.387-.95 1.89c0 0 .97-1.567.77-1.864 0 0-.718.101-.895.22 0 0-.139.993-.625 1.245 0 0 .54-1.116.43-1.194 0 0-.9.382-1.255.816a2.967 2.967 0 0 1 1.188-.954 1.636 1.636 0 0 0-.93-.097s.387-.434 1.15.008c0 0 .713-.27.835-.236 0 0-.692-.542-1.264-.636 0 0 .69-.198 1.472.607l.788-.08s-.876-.76-1.38-.887c0 0 .734-.093 1.58.882l.778.035s-.703-.717-1.233-.975c0 0 .697.06 1.456.992l.518.083s-.524-.513-.688-.647c-.164-.133-.14-.19-.14-.19.422.188.784.488 1.046.87 0 0 1.055.244 1.075.182zM84.725 3.431s-4.636-3.469-6.294.289c0 0-.505.524-.142 1.151 0 0 .173-.244.607.161.155.143.326.267.51.37.247.138.534.191.815.151 0 0 1.725.333 3.712-1.538 0 0 .71-.227.775-.362l-1.047-.18s-.108.77-.648 1.114c0 0 .668-1.072.495-1.15-.035-.016-.558-.075-.558-.075s-.2 1.342-1.05 1.845c0 0 .965-1.171.847-1.87l-.795-.042s-.136 1.426-1.083 2.038c0 0 .968-1.26.912-2.037l-.786.064s-.16 1.388-.952 1.893c0 0 .972-1.568.773-1.866 0 0-.718.102-.896.22 0 0-.138.994-.624 1.246 0 0 .539-1.116.43-1.195 0 0-.901.383-1.255.817a2.953 2.953 0 0 1 1.188-.954 1.625 1.625 0 0 0-.931-.097s.387-.435 1.15.007c0 0 .713-.27.835-.235 0 0-.691-.542-1.264-.638 0 0 .688-.196 1.47.608l.789-.08s-.875-.76-1.38-.89c0 0 .734-.09 1.582.885l.778.033s-.704-.717-1.235-.974c0 0 .698.061 1.458.992l.516.084s-.525-.508-.69-.638c-.163-.13-.14-.189-.14-.189.422.187.785.488 1.046.87 0 0 1.056.23 1.082.172zM102.439 7.826s-1.853-5.485-5.348-3.33c0 0-.714.152-.77.868 0 0 .28-.104.405.473.046.206.116.405.208.594.126.255.33.462.583.591 0 0 1.234 1.253 3.932.839 0 0 .712.215.843.141l-.76-.746s-.525.573-1.166.55c0 0 1.159-.504 1.063-.667a10.08 10.08 0 0 0-.416-.376s-.92.991-1.908.926c0 0 1.46-.416 1.757-1.063l-.629-.485s-.92 1.097-2.049 1.064c0 0 1.52-.488 1.904-1.162l-.684-.394s-.911 1.053-1.856 1.02c0 0 1.689-.74 1.694-1.099 0 0-.65-.323-.863-.326 0 0-.678.74-1.215.672 0 0 1.075-.615 1.03-.74 0 0-.958-.197-1.497-.039a2.96 2.96 0 0 1 1.52-.114 1.639 1.639 0 0 0-.713-.607s.565-.139.943.657c0 0 .741.184.82.28 0 0-.26-.837-.679-1.241 0 0 .68.23.865 1.34l.695.38s-.287-1.126-.633-1.52c0 0 .658.34.8 1.624l.623.47s-.173-.99-.465-1.504c0 0 .541.446.638 1.645l.379.361s-.14-.72-.198-.923c-.058-.204-.01-.217-.01-.217.241.394.369.847.369 1.309 0 0 .735.788.788.749zM90.345 8.096s-5.757-.64-5.282 3.444c0 0-.171.708.456 1.063 0 0 .026-.304.608-.167.205.044.415.065.625.062.284-.005.56-.102.783-.278 0 0 1.657-.588 2.43-3.208 0 0 .495-.554.485-.705l-.995.368s.303.718 0 1.29c0 0 .032-1.263-.152-1.243-.038 0-.518.219-.518.219s.51 1.253.033 2.126c0 0 .24-1.5-.217-2.041l-.706.364s.607 1.3.098 2.308c0 0 .198-1.577-.247-2.216l-.646.455s.565 1.278.138 2.115c0 0 .045-1.844-.279-2 0 0-.568.455-.66.643 0 0 .384.927.093 1.39 0 0-.101-1.235-.235-1.247 0 0-.583.785-.668 1.34.052-.514.239-1.006.54-1.425-.315.043-.61.178-.85.387 0 0 .112-.57.993-.575 0 0 .479-.594.608-.626 0 0-.87-.117-1.413.09 0 0 .494-.519 1.578-.216l.64-.47s-1.156-.234-1.645-.082c0 0 .586-.455 1.81-.038l.688-.366s-.97-.261-1.558-.214c0 0 .633-.304 1.759.117l.49-.19s-.713-.178-.923-.211c-.21-.033-.217-.091-.217-.091.46-.053.924.023 1.343.219 0 0 1.023-.327 1.013-.39zM140.714 52.78s-5.753-.64-5.278 3.44c0 0-.172.707.456 1.063 0 0 .025-.304.607-.17.206.047.416.068.626.063.284-.004.56-.102.782-.278 0 0 1.658-.588 2.423-3.206 0 0 .495-.556.485-.705l-.995.366s.304.72 0 1.291c0 0 .032-1.264-.152-1.242-.038 0-.518.217-.518.217s.51 1.253.033 2.126c0 0 .24-1.499-.217-2.041l-.706.366s.607 1.299.1 2.307c0 0 .196-1.576-.25-2.218l-.645.456s.565 1.278.139 2.113c0 0 .044-1.844-.28-1.999 0 0-.567.456-.66.644 0 0 .385.927.093 1.39 0 0-.101-1.235-.235-1.247 0 0-.583.785-.668 1.34.052-.514.239-1.006.54-1.425a1.62 1.62 0 0 0-.85.387s.112-.57.993-.577c0 0 .48-.594.608-.624 0 0-.87-.119-1.413.09 0 0 .494-.519 1.58-.216l.638-.47s-1.142-.215-1.64-.067c0 0 .587-.455 1.812-.04l.688-.364s-.971-.26-1.559-.214c0 0 .634-.304 1.76.117l.488-.191s-.712-.178-.922-.21c-.21-.032-.217-.091-.217-.091a2.49 2.49 0 0 1 1.343.217s1.027-.332 1.011-.398zM149.51 58.154s-5.753-.64-5.278 3.44c0 0-.17.707.456 1.063 0 0 .026-.304.608-.167.205.044.414.065.624.06.283-.005.556-.102.78-.276 0 0 1.655-.588 2.42-3.208 0 0 .497-.555.485-.705l-.995.366s.304.72 0 1.291c0 0 .032-1.262-.152-1.242-.038 0-.518.217-.518.217s.51 1.253.034 2.126c0 0 .24-1.499-.218-2.04l-.706.365s.608 1.299.1 2.307c0 0 .196-1.576-.249-2.216l-.645.456s.565 1.277.14 2.114c0 0 .042-1.845-.282-2 0 0-.566.456-.66.644 0 0 .385.926.094 1.39 0 0-.102-1.235-.236-1.247 0 0-.583.785-.666 1.34a2.965 2.965 0 0 1 .539-1.425c-.315.043-.611.178-.85.387 0 0 .113-.571.994-.576 0 0 .479-.594.608-.626 0 0-.87-.117-1.413.092 0 0 .494-.52 1.58-.218l.638-.469s-1.143-.216-1.64-.067c0 0 .587-.456 1.811-.038l.689-.366s-.971-.261-1.559-.214c0 0 .633-.304 1.759.117l.49-.19s-.713-.178-.921-.211c-.208-.034-.22-.091-.22-.091.46-.053.925.023 1.344.218 0 0 1.031-.335 1.016-.4zM129.981 12.887s-4.636-3.468-6.293.289c0 0-.506.524-.143 1.151 0 0 .173-.244.608.161.154.143.324.268.507.37.248.139.535.192.816.153 0 0 1.726.332 3.714-1.538 0 0 .708-.227.775-.361l-1.044-.188s-.11.77-.649 1.114c0 0 .667-1.072.494-1.15-.035-.016-.556-.075-.556-.075s-.196 1.34-1.046 1.845c0 0 .967-1.17.847-1.87l-.794-.042s-.135 1.426-1.083 2.04c0 0 .969-1.26.911-2.037l-.787.064s-.152 1.386-.95 1.89c0 0 .971-1.567.771-1.865 0 0-.718.102-.896.22 0 0-.137.994-.623 1.246 0 0 .538-1.116.428-1.194 0 0-.9.382-1.254.816a2.967 2.967 0 0 1 1.188-.954 1.636 1.636 0 0 0-.93-.097s.387-.434 1.15.008c0 0 .712-.27.834-.236 0 0-.691-.542-1.264-.636 0 0 .69-.198 1.472.607l.788-.08s-.875-.76-1.38-.887c0 0 .735-.093 1.58.882l.78.035s-.705-.717-1.235-.975c0 0 .699.06 1.457.992l.518.083s-.524-.513-.688-.647c-.165-.133-.14-.177-.14-.177.422.187.784.488 1.045.868 0 0 1.053.237 1.072.175zM133.563 37.923s-1.598-5.564-5.192-3.567c0 0-.72.111-.81.831 0 0 .286-.09.385.492.036.21.098.413.182.608.113.262.308.48.556.62 0 0 1.176 1.306 3.889 1.015 0 0 .701.246.835.179l-.718-.781s-.552.55-1.19.498c0 0 1.179-.455 1.088-.618-.018-.033-.398-.396-.398-.396s-.963.95-1.947.84c0 0 1.478-.35 1.803-.979l-.608-.513s-.97 1.054-2.095.972c0 0 1.531-.42 1.954-1.075l-.666-.424s-.964 1.01-1.9.934c0 0 1.721-.664 1.742-1.02 0 0-.635-.353-.849-.365 0 0-.71.708-1.248.616 0 0 1.102-.566 1.063-.694 0 0-.948-.238-1.493-.106a2.964 2.964 0 0 1 1.519-.044 1.63 1.63 0 0 0-.684-.638s.571-.114.912.699c0 0 .73.215.806.316 0 0-.223-.85-.623-1.27 0 0 .669.258.804 1.376l.677.412s-.236-1.14-.565-1.54c0 0 .641.368.728 1.656l.608.497s-.13-.996-.397-1.519c0 0 .521.471.564 1.671l.361.38s-.106-.726-.152-.933c-.045-.206 0-.235 0-.235.225.404.333.862.312 1.324 0 0 .692.817.747.781zM97.955 50.46s-3.103-4.887-5.985-1.962c0 0-.66.304-.544 1.026 0 0 .251-.168.51.364a2.6 2.6 0 0 0 .342.526c.182.219.43.373.707.437 0 0 1.496.924 4.018-.121 0 0 .742.04.852-.063l-.912-.546s-.375.683-1.002.812c0 0 1.005-.76.87-.9-.026-.026-.494-.266-.494-.266s-.657 1.181-1.632 1.353c0 0 1.32-.752 1.456-1.448l-.727-.32s-.634 1.283-1.737 1.519c0 0 1.352-.834 1.573-1.581l-.76-.22s-.64 1.242-1.56 1.432c0 0 1.464-1.121 1.384-1.47 0 0-.708-.16-.911-.111 0 0-.482.879-1.026.943 0 0 .9-.854.825-.966 0 0-.977.038-1.463.319.434-.281.933-.444 1.45-.471a1.63 1.63 0 0 0-.835-.42s.515-.27 1.064.414c0 0 .76 0 .864.076 0 0-.456-.76-.955-1.044 0 0 .714.06 1.157 1.095l.767.204s-.548-1.025-.975-1.319c0 0 .718.174 1.163 1.387l.717.304s-.404-.919-.81-1.349c0 0 .633.304 1.011 1.445l.456.263s-.304-.667-.412-.851c-.108-.184-.065-.226-.065-.226.328.324.56.734.67 1.183 0 0 .908.604.949.553z" opacity=".1"/>
        <path fill="#4A5974" d="M118.35 25.486s-2.951-4.981-5.924-2.147c0 0-.668.289-.574 1.009 0 0 .254-.161.497.378.087.192.196.372.326.538.175.224.418.384.693.455 0 0 1.466.97 4.02 0 0 0 .74.063.853-.036l-.892-.574s-.395.67-1.026.78c0 0 1.028-.733.899-.871-.028-.03-.486-.284-.486-.284s-.694 1.162-1.671 1.303c0 0 1.343-.71 1.5-1.4l-.718-.338s-.673 1.266-1.783 1.468c0 0 1.378-.792 1.62-1.532l-.75-.243s-.68 1.216-1.604 1.383c0 0 1.498-1.076 1.428-1.427 0 0-.702-.182-.911-.14 0 0-.51.865-1.055.912 0 0 .925-.823.856-.939 0 0-.979.008-1.472.274a2.965 2.965 0 0 1 1.462-.426 1.633 1.633 0 0 0-.821-.446s.524-.254 1.063.446c0 0 .76.026.861.104 0 0-.43-.76-.922-1.073 0 0 .711.082 1.123 1.13l.76.228s-.516-1.042-.935-1.349c0 0 .714.196 1.121 1.422l.706.33s-.375-.931-.76-1.367c0 0 .622.323.967 1.475l.445.276s-.285-.676-.386-.863c-.1-.187-.057-.228-.057-.228.318.335.537.752.633 1.203 0 0 .87.619.914.569zM99.677 35.959s.152-5.787-3.868-4.972c0 0-.72-.11-1.024.549 0 0 .304 0 .219.585-.028.208-.031.42-.01.628.028.284.148.551.342.76 0 0 .725 1.6 3.4 2.145 0 0 .594.448.742.423l-.455-.96s-.691.356-1.285.114c0 0 1.26-.074 1.226-.26 0-.037-.262-.5-.262-.5s-1.206.616-2.11.212c0 0 1.52.114 2.016-.386l-.424-.673s-1.242.711-2.29.292c0 0 1.587.064 2.189-.433l-.506-.608s-1.226.672-2.095.316c0 0 1.841-.11 1.975-.446 0 0-.499-.527-.699-.608 0 0-.89.456-1.376.21 0 0 1.215-.204 1.223-.339 0 0-.831-.515-1.392-.553.517.01 1.022.154 1.466.42a1.633 1.633 0 0 0-.456-.816s.579.065.658.942c0 0 .633.428.674.546 0 0 .044-.876-.21-1.399 0 0 .56.448.35 1.554l.521.599s.119-1.158-.071-1.64c0 0 .498.546.191 1.8l.421.655s.18-.988.084-1.57c0 0 .352.607.03 1.763l.23.471s.118-.724.133-.935c.015-.212.073-.225.073-.225.091.453.055.922-.105 1.356 0 0 .409 1.003.475.983z"/>
        <ellipse cx="106.325" cy="108.805" fill="#4A5974" opacity=".1" rx="4.091" ry="1"/>
        <ellipse cx="91.413" cy="119.298" fill="#4A5974" opacity=".1" rx="4.091" ry="1"/>
        <ellipse cx="14.3" cy="113.923" fill="#4A5974" opacity=".1" rx="4.091" ry="1"/>
        <ellipse cx="122.439" cy="118.607" fill="#4A5974" opacity=".1" rx="4.091" ry="1"/>
        <ellipse cx="126.699" cy="109.838" fill="#4A5974" rx="6.108" ry="1.033"/>
        <path fill="#4A5974" d="M129.23 108.147c.28-.226.483-.533.583-.878.076-.349-.073-.767-.406-.894-.374-.143-.773.115-1.077.376-.304.262-.648.56-1.045.506.414-.376.6-.941.492-1.49a.624.624 0 0 0-.136-.304c-.209-.221-.584-.126-.833.049-.79.556-1.01 1.628-1.015 2.594-.079-.348-.012-.71-.013-1.063-.002-.352-.1-.76-.403-.945a1.202 1.202 0 0 0-.607-.152c-.356-.012-.752.023-.994.283-.304.322-.223.864.038 1.215.261.35.66.577 1.029.823.294.176.545.415.735.7.021.04.04.082.053.125h2.227c.498-.25.96-.569 1.373-.945z"/>
        <path fill="#A8A8A8" d="M11.553 110.71s2.332-.072 3.038-.573c.707-.501 3.59-1.098 3.764-.294.175.803 3.506 3.993.872 4.014-2.634.021-6.12-.41-6.821-.838-.702-.429-.853-2.31-.853-2.31z"/>
        <path fill="#000" d="M19.271 113.578c-2.634.021-6.12-.41-6.821-.839-.535-.325-.748-1.493-.82-2.032h-.077s.152 1.882.85 2.309c.697.427 4.187.86 6.821.838.76 0 1.023-.276 1.009-.677-.106.244-.397.396-.962.4z" opacity=".2"/>
    </g>
</svg>
