<svg xmlns="http://www.w3.org/2000/svg" viewBox="0 0 452.46 88.48"><defs><style>.cls-1{fill:#00a971;}.cls-2{fill:#fff;}</style></defs><g id="图层_2" data-name="图层 2"><g id="图层_1-2" data-name="图层 1"><path class="cls-1" d="M346.82,74.16a2.51,2.51,0,0,0-2.48-2.48H318.07V51.35h26.27a2.44,2.44,0,0,0,2.48-2.48v-6.2a2.51,2.51,0,0,0-2.48-2.48H318.07V19.86h26.27a2.44,2.44,0,0,0,2.48-2.48v-6.2a2.51,2.51,0,0,0-2.48-2.48H309.4a2.51,2.51,0,0,0-2.48,2.48V80.36a2.51,2.51,0,0,0,2.48,2.48h34.94a2.44,2.44,0,0,0,2.48-2.48Z"/><path class="cls-1" d="M452.46,74.16A2.5,2.5,0,0,0,450,71.68H423.72V51.35H450a2.43,2.43,0,0,0,2.48-2.48v-6.2A2.5,2.5,0,0,0,450,40.19H423.72V19.86H450a2.43,2.43,0,0,0,2.48-2.48v-6.2A2.51,2.51,0,0,0,450,8.7H415.05a2.5,2.5,0,0,0-2.48,2.48V80.36a2.5,2.5,0,0,0,2.48,2.48H450a2.43,2.43,0,0,0,2.47-2.48Z"/><path class="cls-2" d="M170.88,82.67c-7.31,0-21.58-9.84-21.58-17.82V11.3a2.55,2.55,0,0,1,2.55-2.43h5.86a2.48,2.48,0,0,1,2.54,2.43V63.41c0,3.88,7.2,9.18,10.63,9.18s10.62-5.3,10.62-9.18V11.3a2.36,2.36,0,0,1,2.33-2.43h6.08a2.55,2.55,0,0,1,2.55,2.43V64.85C192.46,72.59,178.18,82.67,170.88,82.67Z"/><path class="cls-2" d="M294,74.16a2.5,2.5,0,0,0-2.47-2.48H265.25V51.35h26.26A2.43,2.43,0,0,0,294,48.87v-6.2a2.5,2.5,0,0,0-2.48-2.48H265.25V19.86h26.26A2.43,2.43,0,0,0,294,17.38v-6.2a2.51,2.51,0,0,0-2.48-2.48H256.58a2.5,2.5,0,0,0-2.48,2.48V80.36a2.5,2.5,0,0,0,2.48,2.48h34.94A2.43,2.43,0,0,0,294,80.36Z"/><path class="cls-2" d="M234.77,44.54c5.11-3.37,10.25-9.9,10.25-15.32,0-8.4-11.43-20.31-19.6-20.31H207.87c-2.47,0-5.49,2.58-5.49,5.15V80.17A2.51,2.51,0,0,0,205,82.63H225.8C234,82.63,245,68.87,245,60.46,245,55,239.88,47.94,234.77,44.54Zm-21.3-26H224C228.44,18.54,234,25,234,29.22s-5.37,11.5-10,11.5h-10.6ZM224,73H213.47V48.35h10.6c4.6,0,10,7.74,10,12.11S228.44,73,224,73Z"/><path class="cls-2" d="M113.74,46.18l24.53-28.41a2.44,2.44,0,0,0-.26-3.5l-4.69-4a2.51,2.51,0,0,0-3.5.26L108.37,35.32V11.18a2.43,2.43,0,0,0-2.48-2.48H99.7a2.51,2.51,0,0,0-2.48,2.48V80.36a2.51,2.51,0,0,0,2.48,2.48h6.19a2.43,2.43,0,0,0,2.48-2.48V57l21.45,24.84a2.5,2.5,0,0,0,3.5.25l4.69-4a2.42,2.42,0,0,0,.26-3.49Z"/><rect class="cls-1" x="373.95" y="43.49" width="11.16" height="38.95" rx="2.48"/><path class="cls-1" d="M398.15,9.1h-6.29a2.53,2.53,0,0,0-2.51,2.51V26.77c0,3.92-5.36,13.26-9.66,13.62-4.3-.36-9.65-9.7-9.65-13.62V11.61a2.53,2.53,0,0,0-2.52-2.51h-6.28a2.54,2.54,0,0,0-2.52,2.51V28.49c0,5.6,5.65,15.06,9.79,17.7,2.36,1.52,5.79,3.88,10.9,4.05H380c5.12-.17,8.54-2.53,10.91-4.05,4.13-2.64,9.78-12.1,9.78-17.7V11.61A2.53,2.53,0,0,0,398.15,9.1Z"/><path class="cls-1" d="M45.76,55.42a18.91,18.91,0,0,0,9.31-32.94A27.11,27.11,0,1,0,65.25,43.64a26.69,26.69,0,0,0-.54-5.41A21.94,21.94,0,0,1,34.32,57.15a14,14,0,1,1,11.44-1.73Z"/><path class="cls-1" d="M38.31,0,0,22.12V66.36L38.31,88.48,76.63,66.36V22.12Zm-.19,74A30.32,30.32,0,1,1,56.84,19.84l0,0c.09.07.16.15.24.22A30.29,30.29,0,0,1,38.12,74Z"/></g></g></svg>